Nederlands gesproken

Soren, een jonge uil, wordt gekidnapt door de uilen van St. Aggie's, een weeshuis waar jonge uilen gehersenspoeld worden tot meedogenloze soldaten. Soren en een paar andere uilen weten uit het weeshuis te ontsnappen en vluchten naar het eiland 'Ga'Hoole', om een wijze groep uilen bij te staan in hun strijd tegen de soldaten van St. Aggie's.

General:

Complete name                    : Legende van Ga'Hoole\Legende van Ga'Hoole.avi
Format                           : AVI
Format/Info                      : Audio Video Interleave
File size                        : 1.37 GiB
Duration                         : 1h 36mn
Overall bit rate                 : 2 030 Kbps

Video:

Format                           : MPEG-4 Visual
Format profile                   : Simple@L3
Format settings, BVOP            : No
Format settings, QPel            : No
Format settings, GMC             : No warppoints
Format settings, Matrix          : Default (H.263)
Codec ID                         : XVID
Codec ID/Hint                    : XviD
Duration                         : 1h 36mn
Bit rate                         : 1 572 Kbps
Width                            : 704 pixels
Height                           : 396 pixels
Display aspect ratio             : 16:9
Frame rate                       : 23.976 fps
Color space                      : YUV
Chroma subsampling               : 4:2:0
Bit depth                        : 8 bits
Scan type                        : Progressive
Bits/(Pixel*Frame)               : 0.235
Stream size                      : 1.06 GiB (77%)
Writing library                  : XviD 1.1.2 (UTC 2006-11-01)

Audio:

Format                           : AC-3
Format/Info                      : Audio Coding 3
Mode extension                   : CM (complete main)
Codec ID                         : 2000
Duration                         : 1h 36mn
Bit rate mode                    : Constant
Bit rate                         : 448 Kbps
Channel(s)                       : 6 channels
Channel positions                : Front: L C R, Side: L R, LFE
Sampling rate                    : 48.0 KHz
Bit depth                        : 16 bits
Stream size                      : 310 MiB (22%)
Alignment                        : Aligned on interleaves
Interleave, duration             : 32 ms (0.77 video frame)